{"title":"Masti (2004) Hindi HDRip 720p x264 AAC TaRa.mkv","uid":15494122,"size":1253456372,"categoryP":"video","categoryS":"hd___movies","magnet":"?xt=urn:btih:87926be6e6e11e1b8b5d919f2c9054fe9efc53ca&amp;dn=Masti+%282004%29+Hindi+HDRip+720p+x264+AAC+TaRa.mkv&amp;tr=udp%3A%2F%2Ftracker.leechers-paradise.org%3A6969&amp;tr=udp%3A%2F%2Fzer0day.ch%3A1337&amp;tr=udp%3A%2F%2Fopen.demonii.com%3A1337&amp;tr=udp%3A%2F%2Ftracker.coppersurfer.tk%3A6969&amp;tr=udp%3A%2F%2Fexodus.desync.com%3A6969","seeders":1,"leechers":2,"uploader":"MdTaRa","files":1,"time":1470412259,"description":"======================================================================\r\nGeneral\r\nMasti (2004) Hindi HDRip 720p x264 AAC TaRa.mkv\r\nFormat                      : Matroska\r\nFormat version              : Version 4 / Version 2\r\nFile size                   : 1.17 GiB\r\nDuration                    : 2 h 31 min\r\nOverall bit rate mode       : Variable\r\nOverall bit rate            : 1 100 kb/s\r\n========================================================================\r\nVideo\r\nID                          : 1\r\nFormat                      : AVC\r\nFormat/Info                 : Advanced Video Codec\r\nFormat profile              :   \r\nFormat settings, CABAC      : Yes\r\nFormat settings, ReFrames   : 3 frames\r\nCodec ID                    : V_MPEG4/ISO/AVC\r\nDuration                    : 2 h 31 min\r\nBit rate mode               : Variable\r\nBit rate                    : 1 002 kb/s\r\nMaximum bit rate            : 40.0 Mb/s\r\nWidth                       : 1 280 pixels\r\nHeight                      : 544 pixels\r\nDisplay aspect ratio        : 2.35:1\r\nFrame rate mode             : Constant\r\nFrame rate                  : 25.000 FPS\r\nColor space                 : YUV\r\nChroma subsampling          : 4:2:0\r\nBit depth                   : 8 bits\r\nScan type                   : Progressive\r\nBits/(Pixel*Frame)          : 0.058\r\nStream size                 : 1.06 GiB (91%)\r\nTitle                       : Masti .....::::: TaRa :::::.....\r\nLanguage                    : Hindi\r\nDefault                     : Yes\r\nForced                      : No\r\n========================================================================\r\nAudio\r\nID                          : 2\r\nFormat                      : AAC\r\nFormat/Info                 : Advanced Audio Codec\r\nFormat profile              : LC\r\nCodec ID                    : A_AAC\r\nDuration                    : 2 h 31 min\r\nBit rate                    : 96.0 kb/s\r\nChannel(s)                  : 2 channels\r\nChannel positions           : Front: L R\r\nSampling rate               : 48.0 kHz\r\nFrame rate                  : 46.875 FPS (1024 spf)\r\nCompression mode            : Lossy\r\nDelay relative to video     : 9 ms\r\nStream size                 : 104 MiB (9%)\r\nTitle                       : Masti  .....::::: TaRa :::::.....\r\nLanguage                    : Hindi\r\nDefault                     : Yes\r\nForced                      : No\r\n======================================================================== \nhttp://imgur.com/LCfLuNj \nhttp://imgur.com/Uwb2otU","torrent":{"xt":"urn:btih:87926be6e6e11e1b8b5d919f2c9054fe9efc53ca","amp;dn":"Masti+%282004%29+Hindi+HDRip+720p+x264+AAC+TaRa.mkv","amp;tr":["udp%3A%2F%2Ftracker.leechers-paradise.org%3A6969","udp%3A%2F%2Fzer0day.ch%3A1337","udp%3A%2F%2Fopen.demonii.com%3A1337","udp%3A%2F%2Ftracker.coppersurfer.tk%3A6969","udp%3A%2F%2Fexodus.desync.com%3A6969"],"infoHash":"87926be6e6e11e1b8b5d919f2c9054fe9efc53ca","infoHashBuffer":{"type":"Buffer","data":[135,146,107,230,230,225,30,27,139,93,145,159,44,144,84,254,158,252,83,202]},"announce":[],"urlList":[]}}